<svg xmlns="http://www.w3.org/2000/svg"  viewBox="0 0 48 48" width="48px" height="48px"><polygon fill="#f55376" points="37,6 11,6 11,30 24,36 37,42"/><polygon fill="#f55376" points="11,6 37,6 37,30 24,36 11,42"/><polygon fill="#eb0000" points="11,6 11,30 24,36 37,30 37,6"/><g><path fill="#3ddab4" d="M37,34c-5.522,0-10-4.478-10-10s4.478-10,10-10s10,4.478,10,10S42.522,34,37,34z"/><path fill="#c1f5ea" d="M39,30h-4V18h4V30z"/><path fill="#c1f5ea" d="M31,26v-4h12v4H31z"/><rect width="4" height="4" x="35" y="22" fill="#fff"/></g></svg>